<?xml version="1.0" encoding="UTF-8" standalone="no"?>
<!-- Created with Inkscape (http://www.inkscape.org/) -->
<svg
   xmlns:dc="http://purl.org/dc/elements/1.1/"
   xmlns:cc="http://web.resource.org/cc/"
   xmlns:rdf="http://www.w3.org/1999/02/22-rdf-syntax-ns#"
   xmlns:svg="http://www.w3.org/2000/svg"
   xmlns="http://www.w3.org/2000/svg"
   xmlns:sodipodi="http://inkscape.sourceforge.net/DTD/sodipodi-0.dtd"
   xmlns:inkscape="http://www.inkscape.org/namespaces/inkscape"
   width="210mm"
   height="297mm"
   id="svg2"
   sodipodi:version="0.32"
   inkscape:version="0.42.2"
   sodipodi:docbase="/home/david/projects/antargis/ant/data/gui"
   sodipodi:docname="man.svg"
   inkscape:export-filename="/home/david/projects/antargis/ant/data/gui/man.png"
   inkscape:export-xdpi="5.6900001"
   inkscape:export-ydpi="5.6900001">
  <defs
     id="defs4" />
  <sodipodi:namedview
     id="base"
     pagecolor="#ffffff"
     bordercolor="#666666"
     borderopacity="1.0"
     inkscape:pageopacity="0.0"
     inkscape:pageshadow="2"
     inkscape:zoom="0.087500000"
     inkscape:cx="350.00000"
     inkscape:cy="520.00000"
     inkscape:document-units="px"
     inkscape:current-layer="layer1"
     inkscape:window-width="1393"
     inkscape:window-height="960"
     inkscape:window-x="0"
     inkscape:window-y="0" />
  <metadata
     id="metadata7">
    <rdf:RDF>
      <cc:Work
         rdf:about="">
        <dc:format>image/svg+xml</dc:format>
        <dc:type
           rdf:resource="http://purl.org/dc/dcmitype/StillImage" />
      </cc:Work>
    </rdf:RDF>
  </metadata>
  <g
     inkscape:label="Ebene 1"
     inkscape:groupmode="layer"
     id="layer1">
    <path
       style="fill:#000000;fill-opacity:0.56976742;stroke:none;stroke-width:11.250000;stroke-miterlimit:4.0000000;stroke-dasharray:none;stroke-opacity:1.0000000"
       d="M 319.28125 286.46875 C 290.35257 286.46876 266.87500 313.43559 266.87500 346.65625 C 266.87501 346.76245 266.90577 346.86269 266.90625 346.96875 C 267.59980 345.42352 268.44603 344.00753 269.21875 342.53125 C 268.84823 344.81267 268.56250 347.12454 268.56250 349.50000 C 268.56250 375.52286 291.61142 396.65623 320.00000 396.65625 C 348.38857 396.65625 371.43750 375.52287 371.43750 349.50000 C 371.43750 348.35958 371.33701 347.24522 371.25000 346.12500 C 371.38861 346.42475 371.55197 346.69768 371.68750 347.00000 C 371.68808 346.88341 371.71875 346.77300 371.71875 346.65625 C 371.71874 313.43560 348.20992 286.46875 319.28125 286.46875 z M 320.00000 396.65625 L 302.71875 396.65625 C 296.51774 396.65626 290.54110 397.58759 284.90625 399.28125 C 284.53867 398.83880 284.20624 398.36230 283.78125 397.96875 C 280.92780 395.32640 277.07294 394.07183 272.50000 394.06250 C 258.78116 394.03453 238.77944 405.24144 221.43750 423.96875 L 204.68750 442.06250 C 193.41142 454.23938 185.55790 467.20484 181.62500 478.59375 C 146.93049 488.63986 121.21875 524.20025 121.21875 566.59375 C 121.21875 616.77813 157.20171 657.50001 201.53125 657.50000 C 216.96354 657.50000 231.32012 652.49019 243.56250 643.93750 L 243.56250 682.93750 C 243.56249 692.95223 248.03042 701.85729 255.03125 708.09375 C 251.83752 718.33334 249.87500 730.93453 249.87500 744.75000 L 249.87500 754.87500 C 249.87499 776.21168 254.38628 794.93372 261.25000 805.93750 C 254.43114 809.65254 249.96875 815.60152 249.96875 822.37500 C 249.96874 833.69854 262.28887 842.81251 277.59375 842.81250 C 292.89861 842.81248 305.21876 833.69856 305.21875 822.37500 C 305.21874 814.57051 299.30501 807.88284 290.65625 804.43750 C 297.05211 793.28631 301.21876 775.34214 301.21875 754.87500 L 301.21875 744.75000 C 301.21874 732.59975 299.71184 721.35770 297.18750 711.84375 C 307.07178 705.81765 313.65625 695.18463 313.65625 682.93750 L 313.65625 608.25000 C 313.65624 605.20611 313.10341 602.30490 312.34375 599.50000 L 330.90625 599.50000 C 329.91103 602.67536 329.21875 605.96766 329.21875 609.46875 L 329.21875 684.18750 C 329.21874 694.20223 333.68667 703.10729 340.68750 709.34375 C 337.49377 719.58334 335.53125 732.15328 335.53125 745.96875 L 335.53125 756.12500 C 335.53124 777.46168 340.04253 796.18372 346.90625 807.18750 C 340.08739 810.90254 335.62500 816.85152 335.62500 823.62500 C 335.62499 834.94854 347.94512 844.06251 363.25000 844.06250 C 378.55486 844.06248 390.87501 834.94856 390.87500 823.62500 C 390.87499 815.82051 384.96126 809.13284 376.31250 805.68750 C 382.70836 794.53631 386.87501 776.59214 386.87500 756.12500 L 386.87500 745.96875 C 386.87499 733.81850 385.36809 722.60770 382.84375 713.09375 C 392.72803 707.06765 399.31250 696.43463 399.31250 684.18750 L 399.31250 609.46875 C 399.31249 598.02443 393.56475 588.00380 384.75000 581.81250 C 388.19398 578.41028 391.18679 574.54218 393.75000 570.40625 L 396.00000 570.40625 C 400.37133 570.40625 403.87502 566.33071 403.87500 561.25000 C 403.87500 558.31338 402.64885 555.80129 400.81250 554.12500 C 402.18576 549.01078 402.96875 543.65622 402.96875 538.09375 L 402.96875 484.25000 C 413.26667 495.00099 424.31610 503.01654 434.43750 507.71875 C 433.12501 516.13029 432.31250 525.54956 432.31250 535.68750 L 432.31250 539.28125 C 432.31249 573.31266 440.64581 600.71878 451.00000 600.71875 C 461.35419 600.71873 469.68751 573.31266 469.68750 539.28125 L 469.68750 535.68750 C 469.68749 524.00829 468.67694 513.21471 466.96875 503.93750 C 472.55635 491.05729 462.79801 466.38579 442.53125 444.50000 L 425.78125 426.37500 C 402.65868 401.40529 374.85126 389.80559 363.43750 400.37500 C 363.35582 400.45064 363.29829 400.54753 363.21875 400.62500 C 356.47611 398.09291 349.21108 396.65625 341.56250 396.65625 L 320.00000 396.65625 z M 241.28125 484.75000 L 241.28125 487.68750 C 240.65425 487.28131 240.04369 486.85618 239.40625 486.46875 C 240.03126 485.87845 240.65977 485.35974 241.28125 484.75000 z "
       id="rect2044" />
    <path
       style="fill:#777777;fill-opacity:1.0000000;stroke:#000000;stroke-width:11.250000;stroke-miterlimit:4.0000000;stroke-dasharray:none;stroke-opacity:1.0000000"
       d="M 247.05381,371.15234 C 233.33498,371.12436 213.33325,382.33128 195.99131,401.05859 L 179.24131,419.15234 C 158.95433,441.05997 149.21127,465.75159 154.83506,478.62109 C 153.13023,487.89188 152.08506,498.67305 152.08506,510.33984 L 152.08506,513.93359 C 152.08505,547.96504 160.41836,575.37109 170.77256,575.37109 C 181.12675,575.37109 189.46006,547.96502 189.46006,513.93359 L 189.46006,510.33984 C 189.46006,500.21429 188.64454,490.80637 187.33506,482.40234 C 196.49515,478.14829 206.38852,471.10794 215.83506,461.83984 L 215.83506,515.18359 C 215.83506,531.67953 222.32531,546.57619 232.83506,557.58984 C 223.95467,563.77389 218.11631,573.84553 218.11631,585.33984 L 218.11631,660.02734 C 218.11631,670.04209 222.58423,678.94713 229.58506,685.18359 C 226.39134,695.42320 224.42881,708.02437 224.42881,721.83984 L 224.42881,731.96484 C 224.42881,753.30154 228.94009,772.02356 235.80381,783.02734 C 228.98496,786.74240 224.52256,792.69136 224.52256,799.46484 C 224.52256,810.78840 236.84268,819.90235 252.14756,819.90234 C 267.45243,819.90234 279.77257,810.78840 279.77256,799.46484 C 279.77256,791.66037 273.85882,784.97268 265.21006,781.52734 C 271.60593,770.37617 275.77257,752.43198 275.77256,731.96484 L 275.77256,721.83984 C 275.77256,709.68961 274.26565,698.44754 271.74131,688.93359 C 281.62560,682.90751 288.21006,672.27447 288.21006,660.02734 L 288.21006,585.33984 C 288.21006,582.29597 287.65722,579.39474 286.89756,576.58984 L 305.46006,576.58984 C 304.46485,579.76522 303.77256,583.05750 303.77256,586.55859 L 303.77256,661.27734 C 303.77256,671.29209 308.24048,680.19713 315.24131,686.43359 C 312.04759,696.67320 310.08506,709.24312 310.08506,723.05859 L 310.08506,733.21484 C 310.08506,754.55154 314.59634,773.27356 321.46006,784.27734 C 314.64121,787.99240 310.17881,793.94136 310.17881,800.71484 C 310.17881,812.03840 322.49893,821.15235 337.80381,821.15234 C 353.10868,821.15234 365.42882,812.03840 365.42881,800.71484 C 365.42881,792.91037 359.51507,786.22268 350.86631,782.77734 C 357.26218,771.62617 361.42882,753.68198 361.42881,733.21484 L 361.42881,723.05859 C 361.42881,710.90836 359.92190,699.69754 357.39756,690.18359 C 367.28185,684.15751 373.86631,673.52447 373.86631,661.27734 L 373.86631,586.55859 C 373.86631,575.11429 368.11856,565.09364 359.30381,558.90234 C 370.56355,547.77916 377.52257,532.33480 377.52256,515.18359 L 377.52256,461.33984 C 387.82049,472.09082 398.86991,480.10638 408.99131,484.80859 C 407.67883,493.22012 406.86631,502.63940 406.86631,512.77734 L 406.86631,516.37109 C 406.86631,550.40252 415.19962,577.80862 425.55381,577.80859 C 435.90801,577.80859 444.24132,550.40250 444.24131,516.37109 L 444.24131,512.77734 C 444.24131,501.09815 443.23075,490.30455 441.52256,481.02734 C 447.11017,468.14712 437.35182,443.47563 417.08506,421.58984 L 400.33506,403.46484 C 377.21250,378.49512 349.40507,366.89543 337.99131,377.46484 C 337.90964,377.54047 337.85210,377.63737 337.77256,377.71484 C 331.02993,375.18274 323.76489,373.74609 316.11631,373.74609 L 277.27256,373.74609 C 271.07156,373.74609 265.09491,374.67743 259.46006,376.37109 C 259.09249,375.92863 258.76005,375.45214 258.33506,375.05859 C 255.48162,372.41623 251.62675,371.16167 247.05381,371.15234 z "
       id="path2094" />
    <rect
       style="fill:#7b5000;fill-opacity:1.0000000;stroke:#000000;stroke-width:11.250000;stroke-miterlimit:4.0000000;stroke-dasharray:none;stroke-opacity:1.0000000"
       id="rect2106"
       width="164.65486"
       height="18.341990"
       x="213.77325"
       y="529.16766"
       rx="7.8904848"
       ry="33.335033" />
    <g
       id="g2096"
       transform="translate(-25.45958,-32.90123)"
       style="stroke:#000000;stroke-width:11.250000;stroke-miterlimit:4.0000000;stroke-dasharray:none;stroke-opacity:1.0000000">
      <path
         transform="translate(-6.060915,-16.16244)"
         d="M 287.89348 592.74280 A 80.307129 90.913727 0 1 1  127.27922,592.74280 A 80.307129 90.913727 0 1 1  287.89348 592.74280 z"
         sodipodi:ry="90.913727"
         sodipodi:rx="80.307129"
         sodipodi:cy="592.74280"
         sodipodi:cx="207.58635"
         id="path2098"
         style="fill:#7b5000;fill-opacity:1.0000000;stroke:#000000;stroke-width:11.250000;stroke-miterlimit:4.0000000;stroke-dasharray:none;stroke-opacity:1.0000000"
         sodipodi:type="arc" />
      <path
         d="M 226.27417 578.09558 A 25.253813 24.748737 0 1 1  175.76654,578.09558 A 25.253813 24.748737 0 1 1  226.27417 578.09558 z"
         sodipodi:ry="24.748737"
         sodipodi:rx="25.253813"
         sodipodi:cy="578.09558"
         sodipodi:cx="201.02036"
         id="path2100"
         style="fill:#adadad;fill-opacity:1.0000000;stroke:#000000;stroke-width:11.250000;stroke-miterlimit:4.0000000;stroke-dasharray:none;stroke-opacity:1.0000000"
         sodipodi:type="arc" />
    </g>
    <path
       sodipodi:type="arc"
       style="fill:#dec160;fill-opacity:1.0000000;stroke:#000000;stroke-width:11.250000;stroke-miterlimit:4.0000000;stroke-dasharray:none;stroke-opacity:1.0000000"
       id="path2102"
       sodipodi:cx="321.42856"
       sodipodi:cy="358.07648"
       sodipodi:rx="51.428570"
       sodipodi:ry="47.142857"
       d="M 372.85713 358.07648 A 51.428570 47.142857 0 1 1  269.99999,358.07648 A 51.428570 47.142857 0 1 1  372.85713 358.07648 z"
       transform="translate(-26.88815,-31.47266)" />
    <path
       style="fill:#7b5000;fill-opacity:1.0000000;stroke:#000000;stroke-width:11.250000;stroke-miterlimit:4.0000000;stroke-dasharray:none;stroke-opacity:1.0000000"
       d="M 293.83506,263.57199 C 264.90639,263.57199 241.42449,290.53883 241.42449,323.75949 C 241.42449,323.86568 241.44893,323.96593 241.44941,324.07199 C 251.86386,300.86861 271.41158,285.16574 293.83506,285.16574 C 316.26953,285.16575 335.81014,300.88109 346.22071,324.10324 C 346.22130,323.98664 346.24564,323.87624 346.24564,323.75949 C 346.24564,290.53883 322.76373,263.57199 293.83506,263.57199 z "
       id="path2104" />
  </g>
</svg>
