<?xml version="1.0" encoding="UTF-8" standalone="no"?>
<!-- Created with Inkscape (http://www.inkscape.org/) -->
<svg
   xmlns:dc="http://purl.org/dc/elements/1.1/"
   xmlns:cc="http://web.resource.org/cc/"
   xmlns:rdf="http://www.w3.org/1999/02/22-rdf-syntax-ns#"
   xmlns:svg="http://www.w3.org/2000/svg"
   xmlns="http://www.w3.org/2000/svg"
   xmlns:xlink="http://www.w3.org/1999/xlink"
   xmlns:sodipodi="http://inkscape.sourceforge.net/DTD/sodipodi-0.dtd"
   xmlns:inkscape="http://www.inkscape.org/namespaces/inkscape"
   width="210mm"
   height="297mm"
   id="svg2"
   sodipodi:version="0.32"
   inkscape:version="0.43"
   sodipodi:docbase="/home/david/projects/antargis/ant/data/gui"
   sodipodi:docname="wood.svg"
   inkscape:export-filename="/home/david/projects/antargis/ant/data/gui/wood.png"
   inkscape:export-xdpi="7.5599999"
   inkscape:export-ydpi="7.5599999">
  <defs
     id="defs4">
    <linearGradient
       id="linearGradient2195">
      <stop
         style="stop-color:#bf8300;stop-opacity:1;"
         offset="0"
         id="stop2197" />
      <stop
         style="stop-color:#785200;stop-opacity:1;"
         offset="1"
         id="stop2199" />
    </linearGradient>
    <linearGradient
       inkscape:collect="always"
       xlink:href="#linearGradient2195"
       id="linearGradient2201"
       x1="309.03687"
       y1="577.37469"
       x2="394.59363"
       y2="685.79578"
       gradientUnits="userSpaceOnUse" />
    <linearGradient
       inkscape:collect="always"
       xlink:href="#linearGradient2195"
       id="linearGradient2233"
       gradientUnits="userSpaceOnUse"
       x1="309.03687"
       y1="577.37469"
       x2="394.59363"
       y2="685.79578" />
    <linearGradient
       inkscape:collect="always"
       xlink:href="#linearGradient2195"
       id="linearGradient2247"
       gradientUnits="userSpaceOnUse"
       x1="309.03687"
       y1="577.37469"
       x2="394.59363"
       y2="685.79578" />
  </defs>
  <sodipodi:namedview
     id="base"
     pagecolor="#ffffff"
     bordercolor="#666666"
     borderopacity="1.0"
     inkscape:pageopacity="0.0"
     inkscape:pageshadow="2"
     inkscape:zoom="1"
     inkscape:cx="372.04724"
     inkscape:cy="526.18109"
     inkscape:document-units="px"
     inkscape:current-layer="layer1"
     inkscape:window-width="1392"
     inkscape:window-height="964"
     inkscape:window-x="0"
     inkscape:window-y="0" />
  <metadata
     id="metadata7">
    <rdf:RDF>
      <cc:Work
         rdf:about="">
        <dc:format>image/svg+xml</dc:format>
        <dc:type
           rdf:resource="http://purl.org/dc/dcmitype/StillImage" />
      </cc:Work>
    </rdf:RDF>
  </metadata>
  <g
     inkscape:label="Ebene 1"
     inkscape:groupmode="layer"
     id="layer1">
    <g
       id="g2214">
      <path
         sodipodi:nodetypes="ccccscccscccc"
         id="rect1309"
         d="M 332.34852,517.74031 L 194.91162,620.0585 L 262.87217,709.24022 L 400.30906,606.92203 C 403.75822,605.19366 407.10287,603.11997 410.29283,600.68907 C 413.4828,598.25818 416.36938,595.58339 418.95073,592.71623 L 419.59697,592.22376 L 419.50226,592.09949 C 437.73017,571.298 440.00817,540.69201 423.37228,518.86142 C 406.73638,497.03084 376.62248,491.10897 351.73113,503.16632 L 351.63643,503.04204 L 350.99018,503.53451 C 340.16544,510.42578 334.59678,515.24311 332.34852,517.74031 z "
         style="fill:url(#linearGradient2201);fill-opacity:1.0;stroke:#885200;stroke-width:7.27871378;stroke-miterlimit:4;stroke-dasharray:none;stroke-dashoffset:0;stroke-opacity:1" />
      <path
         transform="translate(118.0093,265.5209)"
         d="M 180 392.36218 A 60 57.142857 0 1 1  60,392.36218 A 60 57.142857 0 1 1  180 392.36218 z"
         sodipodi:ry="57.142857"
         sodipodi:rx="60"
         sodipodi:cy="392.36218"
         sodipodi:cx="120"
         id="path1307"
         style="fill:#d48900;fill-opacity:1;stroke:#885200;stroke-width:6.77921378;stroke-miterlimit:4;stroke-dasharray:none;stroke-dashoffset:0;stroke-opacity:1"
         sodipodi:type="arc" />
      <path
         transform="matrix(0.794306,0,0,0.796784,142.677,346.8785)"
         d="M 180 392.36218 A 60 57.142857 0 1 1  60,392.36218 A 60 57.142857 0 1 1  180 392.36218 z"
         sodipodi:ry="57.142857"
         sodipodi:rx="60"
         sodipodi:cy="392.36218"
         sodipodi:cx="120"
         id="path2203"
         style="fill:#d48900;fill-opacity:1;stroke:#885200;stroke-width:9.1153326;stroke-miterlimit:4;stroke-dasharray:none;stroke-dashoffset:0;stroke-opacity:1"
         sodipodi:type="arc" />
      <path
         transform="matrix(0.557832,0,0,0.549244,169.8164,443.7413)"
         d="M 180 392.36218 A 60 57.142857 0 1 1  60,392.36218 A 60 57.142857 0 1 1  180 392.36218 z"
         sodipodi:ry="57.142857"
         sodipodi:rx="60"
         sodipodi:cy="392.36218"
         sodipodi:cx="120"
         id="path2205"
         style="fill:#d48900;fill-opacity:1;stroke:#885200;stroke-width:12.24742974;stroke-miterlimit:4;stroke-dasharray:none;stroke-dashoffset:0;stroke-opacity:1"
         sodipodi:type="arc" />
      <path
         transform="matrix(0.314889,5.024261e-2,-4.93239e-2,0.320754,218.6911,527.7315)"
         d="M 180 392.36218 A 60 57.142857 0 1 1  60,392.36218 A 60 57.142857 0 1 1  180 392.36218 z"
         sodipodi:ry="57.142857"
         sodipodi:rx="60"
         sodipodi:cy="392.36218"
         sodipodi:cx="120"
         id="path2207"
         style="fill:#d48900;fill-opacity:1;stroke:#885200;stroke-width:21.07419417;stroke-miterlimit:4;stroke-dasharray:none;stroke-dashoffset:0;stroke-opacity:1"
         sodipodi:type="arc" />
    </g>
    <g
       id="g2221"
       transform="translate(117.5642,10.4634)">
      <path
         sodipodi:nodetypes="ccccscccscccc"
         id="path2223"
         d="M 332.34852,517.74031 L 194.91162,620.0585 L 262.87217,709.24022 L 400.30906,606.92203 C 403.75822,605.19366 407.10287,603.11997 410.29283,600.68907 C 413.4828,598.25818 416.36938,595.58339 418.95073,592.71623 L 419.59697,592.22376 L 419.50226,592.09949 C 437.73017,571.298 440.00817,540.69201 423.37228,518.86142 C 406.73638,497.03084 376.62248,491.10897 351.73113,503.16632 L 351.63643,503.04204 L 350.99018,503.53451 C 340.16544,510.42578 334.59678,515.24311 332.34852,517.74031 z "
         style="fill:url(#linearGradient2233);fill-opacity:1;stroke:#885200;stroke-width:7.2787137;stroke-miterlimit:4;stroke-dasharray:none;stroke-dashoffset:0;stroke-opacity:1" />
      <path
         transform="translate(118.0093,265.5209)"
         d="M 180 392.36218 A 60 57.142857 0 1 1  60,392.36218 A 60 57.142857 0 1 1  180 392.36218 z"
         sodipodi:ry="57.142857"
         sodipodi:rx="60"
         sodipodi:cy="392.36218"
         sodipodi:cx="120"
         id="path2225"
         style="fill:#d48900;fill-opacity:1;stroke:#885200;stroke-width:6.77921391;stroke-miterlimit:4;stroke-dasharray:none;stroke-dashoffset:0;stroke-opacity:1"
         sodipodi:type="arc" />
      <path
         transform="matrix(0.794306,0,0,0.796784,142.677,346.8785)"
         d="M 180 392.36218 A 60 57.142857 0 1 1  60,392.36218 A 60 57.142857 0 1 1  180 392.36218 z"
         sodipodi:ry="57.142857"
         sodipodi:rx="60"
         sodipodi:cy="392.36218"
         sodipodi:cx="120"
         id="path2227"
         style="fill:#d48900;fill-opacity:1;stroke:#885200;stroke-width:9.1153326;stroke-miterlimit:4;stroke-dasharray:none;stroke-dashoffset:0;stroke-opacity:1"
         sodipodi:type="arc" />
      <path
         transform="matrix(0.557832,0,0,0.549244,169.8164,443.7413)"
         d="M 180 392.36218 A 60 57.142857 0 1 1  60,392.36218 A 60 57.142857 0 1 1  180 392.36218 z"
         sodipodi:ry="57.142857"
         sodipodi:rx="60"
         sodipodi:cy="392.36218"
         sodipodi:cx="120"
         id="path2229"
         style="fill:#d48900;fill-opacity:1;stroke:#885200;stroke-width:12.24742985;stroke-miterlimit:4;stroke-dasharray:none;stroke-dashoffset:0;stroke-opacity:1"
         sodipodi:type="arc" />
      <path
         transform="matrix(0.314889,5.024261e-2,-4.93239e-2,0.320754,218.6911,527.7315)"
         d="M 180 392.36218 A 60 57.142857 0 1 1  60,392.36218 A 60 57.142857 0 1 1  180 392.36218 z"
         sodipodi:ry="57.142857"
         sodipodi:rx="60"
         sodipodi:cy="392.36218"
         sodipodi:cx="120"
         id="path2231"
         style="fill:#d48900;fill-opacity:1;stroke:#885200;stroke-width:21.07419395;stroke-miterlimit:4;stroke-dasharray:none;stroke-dashoffset:0;stroke-opacity:1"
         sodipodi:type="arc" />
    </g>
    <g
       id="g2235"
       transform="translate(62.56418,-91.5366)">
      <path
         sodipodi:nodetypes="ccccscccscccc"
         id="path2237"
         d="M 332.34852,517.74031 L 194.91162,620.0585 L 262.87217,709.24022 L 400.30906,606.92203 C 403.75822,605.19366 407.10287,603.11997 410.29283,600.68907 C 413.4828,598.25818 416.36938,595.58339 418.95073,592.71623 L 419.59697,592.22376 L 419.50226,592.09949 C 437.73017,571.298 440.00817,540.69201 423.37228,518.86142 C 406.73638,497.03084 376.62248,491.10897 351.73113,503.16632 L 351.63643,503.04204 L 350.99018,503.53451 C 340.16544,510.42578 334.59678,515.24311 332.34852,517.74031 z "
         style="fill:url(#linearGradient2247);fill-opacity:1;stroke:#885200;stroke-width:7.2787137;stroke-miterlimit:4;stroke-dasharray:none;stroke-dashoffset:0;stroke-opacity:1" />
      <path
         transform="translate(118.0093,265.5209)"
         d="M 180 392.36218 A 60 57.142857 0 1 1  60,392.36218 A 60 57.142857 0 1 1  180 392.36218 z"
         sodipodi:ry="57.142857"
         sodipodi:rx="60"
         sodipodi:cy="392.36218"
         sodipodi:cx="120"
         id="path2239"
         style="fill:#d48900;fill-opacity:1;stroke:#885200;stroke-width:6.77921391;stroke-miterlimit:4;stroke-dasharray:none;stroke-dashoffset:0;stroke-opacity:1"
         sodipodi:type="arc" />
      <path
         transform="matrix(0.794306,0,0,0.796784,142.677,346.8785)"
         d="M 180 392.36218 A 60 57.142857 0 1 1  60,392.36218 A 60 57.142857 0 1 1  180 392.36218 z"
         sodipodi:ry="57.142857"
         sodipodi:rx="60"
         sodipodi:cy="392.36218"
         sodipodi:cx="120"
         id="path2241"
         style="fill:#d48900;fill-opacity:1;stroke:#885200;stroke-width:9.1153326;stroke-miterlimit:4;stroke-dasharray:none;stroke-dashoffset:0;stroke-opacity:1"
         sodipodi:type="arc" />
      <path
         transform="matrix(0.557832,0,0,0.549244,169.8164,443.7413)"
         d="M 180 392.36218 A 60 57.142857 0 1 1  60,392.36218 A 60 57.142857 0 1 1  180 392.36218 z"
         sodipodi:ry="57.142857"
         sodipodi:rx="60"
         sodipodi:cy="392.36218"
         sodipodi:cx="120"
         id="path2243"
         style="fill:#d48900;fill-opacity:1;stroke:#885200;stroke-width:12.24742985;stroke-miterlimit:4;stroke-dasharray:none;stroke-dashoffset:0;stroke-opacity:1"
         sodipodi:type="arc" />
      <path
         transform="matrix(0.314889,5.024261e-2,-4.93239e-2,0.320754,218.6911,527.7315)"
         d="M 180 392.36218 A 60 57.142857 0 1 1  60,392.36218 A 60 57.142857 0 1 1  180 392.36218 z"
         sodipodi:ry="57.142857"
         sodipodi:rx="60"
         sodipodi:cy="392.36218"
         sodipodi:cx="120"
         id="path2245"
         style="fill:#d48900;fill-opacity:1;stroke:#885200;stroke-width:21.07419395;stroke-miterlimit:4;stroke-dasharray:none;stroke-dashoffset:0;stroke-opacity:1"
         sodipodi:type="arc" />
    </g>
  </g>
</svg>
